<?xml version="1.0" encoding="UTF-8"?>
<!DOCTYPE svg PUBLIC "-//W3C//DTD SVG 1.1//EN" "http://www.w3.org/Graphics/SVG/1.1/DTD/svg11.dtd">
<!-- Creator: CorelDRAW -->
<svg xmlns="http://www.w3.org/2000/svg" xml:space="preserve" width="90.437mm" height="78.792mm" version="1.1" style="shape-rendering:geometricPrecision; text-rendering:geometricPrecision; image-rendering:optimizeQuality; fill-rule:evenodd; clip-rule:evenodd"
viewBox="0 0 9043.7 7879.2"
 xmlns:xlink="http://www.w3.org/1999/xlink"
 xmlns:xodm="http://www.corel.com/coreldraw/odm/2003">
 <defs>
  <style type="text/css">
   <![CDATA[
    .fil2 {fill:#2D2A2B;fill-rule:nonzero}
    .fil1 {fill:#643382;fill-rule:nonzero}
    .fil0 {fill:white;fill-rule:nonzero}
   ]]>
  </style>
 </defs>
 <g id="Camada_x0020_3">
  <metadata id="CorelCorpID_0Corel-Layer"/>
  <g id="BACKGROUND">
   <polygon class="fil0" points="-5406.96,10560.53 14436.75,10560.53 14436.75,-2668.65 -5406.96,-2668.65 "/>
  </g>
 </g>
 <g id="Camada_x0020_1">
  <metadata id="CorelCorpID_1Corel-Layer"/>
  <g id="_677553368">
   <g>
    <g>
     <g>
      <path class="fil1" d="M4490.98 4391.44c-116.68,0 -851.56,-311.34 -851.56,-1034.86 0,-260.03 211.53,-471.59 471.59,-471.59 152,0 291.25,71.12 379.99,192.17 88.74,-121.05 227.99,-192.17 379.99,-192.17 260.03,0 471.59,211.56 471.59,471.59 -0.04,723.52 -734.92,1034.86 -851.6,1034.86zm-380 -1453.25c-230.69,0 -418.39,187.7 -418.39,418.39 0,679.95 702.05,981.68 798.38,981.68 109.38,0 798.38,-295.35 798.38,-981.68 0,-230.69 -187.7,-418.39 -418.39,-418.39 -147,0 -280.54,74.98 -357.29,200.58 -9.68,15.82 -35.72,15.82 -45.4,0 -76.72,-125.6 -210.29,-200.58 -357.29,-200.58z"/>
     </g>
    </g>
    <g>
     <path class="fil1" d="M3892.73 4542.54c-135.92,-24.21 -281.94,-182.56 -375.71,-292.52 2.59,-7.09 5.4,-14.71 8.52,-23.12 62.02,-167.24 111.65,-320.07 38.55,-352.95 -25.53,-11.48 -49.66,-10.19 -69.72,-3.55 5.34,-112.58 -8.33,-202.3 -75.67,-212.99 -21.4,-3.33 -41.94,1.48 -59.24,14.02 -1.48,1.08 -2.65,2.49 -4.05,3.65 -5.74,-64.14 -18.73,-113.64 -47.1,-142.35 -17.41,-17.59 -39.32,-26.51 -65.11,-26.51 -46.36,0 -76.25,79.88 -95.38,172.96 -32.83,-90.78 -65.88,-135.47 -106.92,-135.47 -0.05,0 -0.11,0 -0.13,0l-4.39 -0.11c-14.37,-0.45 -40.96,-1.14 -63.05,23.92 -34.63,39.29 -65.22,143.35 6.11,603.17 85.7,552.29 547.98,823.89 722.02,926.12 26.41,15.5 47.25,27.78 57.1,35.32 57.07,43.74 52.89,196.32 50.14,297.31 -0.61,22.44 -1.19,43.47 -1.19,62.04 0,14.68 11.91,26.59 26.59,26.59l474.9 0.01c13.92,0 25.51,-10.74 26.54,-24.63 0.21,-2.94 21.51,-296.25 -0.05,-518.66 -23.95,-247.07 -246.31,-397.27 -442.76,-432.25zm-350.47 -620.08c7.88,3.55 26.17,34.53 -64.72,280.78 -6.06,-7.2 -11.83,-14.05 -17.28,-20.48 2.35,-27.28 6.83,-61.75 12.04,-101.49 6.4,-48.84 12.99,-99.3 17.52,-147.72 6.53,-5.96 27.6,-22.25 52.44,-11.09zm-151.53 -207.99c5.95,-4.34 12.07,-5.74 19.63,-4.5 55.8,8.86 23.12,258 9.18,364.38 -2.7,20.51 -5.16,39.53 -7.33,57.26 -16.91,-14.79 -33.92,-25.45 -50.96,-31.96 -3.7,-73.66 -3.1,-147.45 -2.28,-219 0.4,-36.09 0.77,-70.35 0.53,-102.66 2.5,-13.83 12.37,-49.81 31.23,-63.52zm-145.15 -154.99c10.32,0.45 18.07,3.78 24.9,10.69 38.36,38.79 36.88,170.47 35.32,309.88 -0.77,69.27 -1.35,140.68 1.91,212.67 -19.79,2.65 -36.46,10.66 -49.72,20.16 -4.68,-20.82 -9.66,-43.47 -14.87,-67.28 -21.72,-99.09 -41.28,-182.59 -60.03,-251.83 14.18,-111.58 42.83,-218.84 62.49,-234.29zm1038.49 1905.48l-423.07 0c0.21,-10.82 0.53,-22.23 0.85,-34.03 3.41,-125.04 7.65,-280.7 -70.93,-340.97 -12.46,-9.53 -33.47,-21.88 -62.55,-38.97 -168.06,-98.74 -614.55,-361.05 -696.38,-888.42 -66.73,-429.95 -40.4,-535.31 -18.79,-559.83 5.19,-5.87 9.66,-6.19 21.64,-5.9l6.01 0.11 0.02 0c49.5,0 125.36,346.23 150.31,460.03 9.6,43.89 18.36,83.82 26.14,115.97 0.03,0.13 0.11,0.21 0.13,0.34 22.44,138.91 241.7,432.78 358.48,479.5 3.25,1.3 6.59,1.91 9.87,1.91 10.56,0 20.53,-6.32 24.71,-16.72 5.45,-13.65 -1.19,-29.13 -14.82,-34.58 -98.87,-39.56 -297.89,-306.2 -324.04,-430.79 7.81,-9.66 23.36,-25.27 44.37,-27.44 28.79,-3.02 58.13,21.35 77.6,42.31 12.62,13.6 29.47,33.68 48.97,56.94 100.33,119.62 268.29,319.78 440.74,350.49 182.96,32.6 378.8,175.31 399.12,385.1 17.58,180.68 6.15,410.28 1.62,484.95z"/>
     <path class="fil1" d="M6008.65 3567.58c-22.09,-25.06 -48.66,-24.34 -63.05,-23.92l-4.37 0.11c-0.05,0 -0.11,0 -0.13,0 -41.04,0 -74.08,44.69 -106.94,135.47 -19.16,-93.11 -49.05,-172.98 -95.41,-172.98 -25.8,0 -47.7,8.92 -65.11,26.51 -28.36,28.68 -41.35,78.18 -47.1,142.35 -1.4,-1.16 -2.57,-2.57 -4.05,-3.65 -17.28,-12.57 -37.84,-17.36 -59.24,-14.02 -67.36,10.69 -81.02,100.41 -75.7,212.96 -20.08,-6.67 -44.19,-7.94 -69.72,3.57 -73.13,32.89 -23.47,185.76 38.58,353.03 3.1,8.39 5.9,15.95 8.49,23.05 -93.77,109.96 -239.79,268.29 -375.71,292.52 -196.45,34.98 -418.78,185.18 -442.75,432.33 -21.56,222.41 -0.26,515.73 -0.05,518.66 1.03,13.89 12.59,24.63 26.54,24.63l474.9 -0.01c14.68,0 26.59,-11.91 26.59,-26.59 0,-18.6 -0.56,-39.63 -1.19,-62.07 -2.75,-100.97 -6.91,-253.52 50.14,-297.26 9.84,-7.54 30.69,-19.82 57.1,-35.32 174.04,-102.24 636.32,-373.83 722.02,-926.12 71.38,-459.9 40.8,-563.96 6.16,-603.25zm-297.18 2.59c6.83,-6.91 14.58,-10.24 24.9,-10.69 19.66,15.45 48.31,122.71 62.47,234.26 -18.79,69.24 -38.31,152.74 -60.03,251.83 -5.21,23.81 -10.16,46.46 -14.87,67.28 -13.23,-9.5 -29.92,-17.52 -49.72,-20.16 3.25,-71.99 2.7,-143.4 1.91,-212.7 -1.54,-139.35 -3.02,-271.03 35.34,-309.82zm-139.88 139.81c34.85,-5.61 48.68,56.86 50.83,67.95 -0.21,32.31 0.13,66.6 0.53,102.68 0.79,71.57 1.4,145.36 -2.3,219.08 -17.01,6.54 -34.03,17.17 -50.93,31.94 -2.17,-17.73 -4.63,-36.75 -7.33,-57.26 -13.93,-106.4 -46.6,-355.56 9.2,-364.39zm-131.9 212.48c25.08,-11.35 46.22,5.34 52.47,11.09 4.52,48.42 11.11,98.87 17.52,147.72 5.21,39.71 9.66,74.22 12.01,101.47 -5.48,6.43 -11.24,13.28 -17.28,20.48 -90.91,-246.2 -72.6,-277.21 -64.72,-280.76zm510.25 240.14c-81.84,527.37 -528.29,789.68 -696.38,888.42 -29.08,17.09 -50.09,29.45 -62.55,38.97 -78.61,60.27 -74.35,215.9 -70.93,340.94 0.32,11.8 0.64,23.2 0.85,34.05l-423.08 0c-4.52,-74.69 -15.95,-304.27 1.56,-484.95 20.35,-209.79 216.19,-352.5 399.12,-385.1 172.48,-30.69 340.41,-230.9 440.77,-350.49 19.53,-23.26 36.38,-43.34 48.97,-56.94 19.45,-20.98 48.82,-45.53 77.6,-42.31 21.06,2.17 36.62,17.83 44.37,27.44 -26.14,124.59 -225.16,391.24 -324.04,430.79 -13.63,5.45 -20.27,20.93 -14.82,34.58 4.15,10.4 14.13,16.72 24.71,16.72 3.28,0 6.61,-0.61 9.87,-1.91 116.79,-46.73 336.05,-340.6 358.48,-479.5 0.03,-0.13 0.11,-0.21 0.13,-0.34 7.78,-32.15 16.54,-72.07 26.17,-115.97 24.95,-113.8 100.81,-460.03 150.31,-460.03 0,0 0,0 0.03,0l5.98 -0.11c12.07,-0.34 16.46,0.03 21.64,5.9 21.67,24.53 47.97,129.86 -18.76,559.84z"/>
    </g>
   </g>
   <g>
    <path class="fil2" d="M2573.93 2202.43l55.52 -11.95c15.95,41.95 20.1,83.67 12.13,125.09 -7.88,41.33 -27.07,79.48 -57.68,114.4 -45.01,51.35 -99.19,78.93 -162.35,82.68 -63.14,3.76 -120.82,-17.15 -172.82,-62.73 -52.32,-45.85 -80.7,-100.39 -85.16,-163.59 -4.37,-63.31 15.77,-120.53 60.6,-171.68 27.82,-31.73 60.21,-54.56 96.99,-68.48 36.79,-13.92 75.13,-17.84 115.13,-11.67l-5.88 58.08c-29.87,-7.23 -59.67,-5.77 -89,4.35 -29.34,10.14 -55.08,27.73 -77.12,52.88 -33.77,38.52 -48.5,82.09 -44.22,130.5 4.29,48.42 26.65,90.35 67.07,125.79 40.44,35.44 84.84,52.01 133.28,49.82 48.46,-2.19 89.61,-22.59 123.37,-61.11 23.63,-26.96 38.08,-56.7 43.14,-89.24 5.05,-32.52 0.69,-66.95 -13,-103.14zm404.86 -376.97l169.41 -108.07 -193.81 -116.21 24.4 224.28zm-29.36 227.63l-56.89 -505.03 39.74 -25.34 436.02 263.15 -51.86 33.09 -118.26 -70.19 -212.71 135.7 15.23 135.91 -51.27 32.71zm744.39 -656.33l196.2 -45.27c27.92,-6.44 47.66,-17.52 59.11,-33.19 11.58,-15.71 14.54,-35.51 9.05,-59.3 -5.39,-23.37 -16.73,-39.87 -34.18,-49.6 -17.32,-9.77 -39.02,-11.56 -65.14,-5.53l-198.96 45.91 33.92 146.98zm1.75 259.26l-102.62 -444.67 254.92 -58.83c43.59,-10.06 80.2,-7.06 109.86,9.12 29.79,16.16 49.18,43.68 58.09,82.32 7.46,32.32 4.18,62.04 -9.9,89.47 -14.09,27.44 -36.24,47.6 -66.69,60.57l156.32 169.72 -61.19 14.12 -156.13 -168.89 -172.42 39.79 44.9 194.56 -55.14 12.72zm779.79 -118.76l13.46 -458.71 57.4 1.69 -13.45 458.7 -57.41 -1.68zm551.78 58.8l91.36 -393.39 -186.94 -43.42 11.87 -51.14 429.69 99.79 -11.88 51.14 -187.21 -43.48 -91.36 393.39 -55.53 -12.89zm686.13 54.41l174.05 100.41 13.66 -225.57 -187.71 125.16zm-215.49 79l421.78 -283.53 40.82 23.55 -32.23 508.26 -53.29 -30.74 7.69 -137.3 -218.55 -126.08 -113.54 76.23 -52.68 -30.39zm722.87 392.88l58.41 -10.2c4.19,40.71 13.46,78.14 28.08,112.39 14.52,34.36 33.63,63.91 57.25,88.58 29.17,30.48 59.4,49.01 90.5,55.58 31.19,6.67 56.88,0.25 77.17,-19.17 16.11,-15.42 22.82,-34.94 20.24,-58.65 -2.47,-23.6 -14.31,-48.41 -35.49,-74.42 -4.96,-6.41 -12.34,-15.35 -22.18,-26.84 -48.04,-57.74 -77.13,-100.79 -86.99,-129.05 -7.3,-22.32 -8.95,-43.02 -4.83,-62.18 3.91,-19.18 13.15,-35.65 27.73,-49.61 26.5,-25.37 59.64,-34.42 99.5,-27.06 39.86,7.36 77.79,29.85 113.99,67.67 26.35,27.52 47.71,59.03 64.31,94.52 16.59,35.49 27.53,73.66 32.82,114.7l-56.88 8.73c-3.01,-35.99 -11.27,-69.11 -24.47,-99.44 -13.11,-30.23 -30.99,-57.27 -53.72,-81.01 -23.82,-24.88 -48.22,-40.79 -73.32,-47.63 -25.19,-6.93 -44.93,-3.47 -59.51,10.48 -5.81,5.56 -9.84,11.96 -12.19,19.09 -2.36,7.15 -2.84,15.41 -1.85,24.82 2.79,23.31 24.27,58.81 64.55,106.4 18.69,21.77 32.77,39.15 42.18,51.83 28.24,37.04 42.8,73.89 43.8,110.24 0.89,36.45 -11.55,67.12 -37.45,91.9 -30.89,29.57 -69.04,40.51 -114.59,32.73 -45.54,-7.78 -89.09,-33.29 -130.66,-76.72 -31.41,-32.82 -55.8,-67.89 -73.25,-105.29 -17.45,-37.22 -28.43,-78.08 -33.15,-122.39z"/>
    <path class="fil2" d="M2636.71 5667.66c25.3,30.43 37.74,57.53 37.29,81.39 -0.38,23.81 -11.42,44.74 -33.18,62.82 -9.49,7.9 -19.96,13.95 -31.41,18.06 -11.46,4.2 -23.61,5.59 -36.41,4.22 -12.9,-1.38 -26.32,-6.38 -40.31,-14.93 -13.85,-8.6 -28.03,-21.58 -42.51,-38.98l-22.2 -26.7 -90.49 75.25 -24.36 -29.3 232.47 -193.3 51.11 61.47zm-27.24 18.34l-24.63 -29.62 -91.8 76.32 19.49 23.44c12.23,14.7 24,25.65 35.21,32.85 11.36,7.16 22.45,10.23 33.37,9.23 10.91,-1 22.01,-6.19 33.3,-15.57 15.03,-12.5 22.23,-26.56 21.62,-42.2 -0.57,-15.69 -9.42,-33.83 -26.56,-54.45zm123.64 489.14l-127.45 -110.95 198.5 -228.04 127.46 110.95 -22.01 25.28 -98.72 -85.93 -61.93 71.15 92.91 80.88 -21.72 24.96 -92.92 -80.88 -70.83 81.37 98.72 85.93 -22.01 25.28zm140.85 106.58l165.18 -253.21 31.91 20.81 -146.67 224.85 110.62 72.17 -18.51 28.36 -142.53 -92.98zm585.13 158.35c-10.49,20.94 -22.65,38.6 -36.48,52.98 -13.83,14.38 -29.08,25.13 -45.75,32.25 -16.63,7.06 -34.37,10 -53.2,8.86 -18.77,-1.29 -38.4,-7.01 -58.77,-17.22 -21.26,-10.65 -38.07,-23.25 -50.39,-37.7 -12.21,-14.56 -20.4,-30.51 -24.65,-47.86 -4.27,-17.45 -4.61,-36.01 -1.02,-55.76 3.58,-19.74 10.56,-40 21.02,-60.88 13.94,-27.82 30.61,-49.77 50.06,-65.9 19.46,-16.15 41.36,-25.38 65.72,-27.69 24.39,-2.38 50.71,3.54 79.03,17.73 26.93,13.49 46.77,30.61 59.4,51.38 12.68,20.71 18.53,43.84 17.5,69.36 -0.9,25.6 -8.4,52.38 -22.47,80.45zm-213.47 -106.94c-11.34,22.65 -17.98,43.78 -19.99,63.37 -1.81,19.54 1.64,37.05 10.47,52.52 8.86,15.4 23.36,28.19 43.61,38.33 20.37,10.21 39.31,14.17 56.69,11.92 17.42,-2.32 33.39,-10.11 47.83,-23.32 14.61,-13.27 27.56,-31.24 38.9,-53.89 17.1,-34.13 23.41,-64.36 18.85,-90.71 -4.36,-26.41 -21.87,-47.25 -52.33,-62.51 -20.5,-10.27 -39.52,-14.35 -57.16,-12.23 -17.62,2.07 -33.65,9.67 -48.14,22.69 -14.4,13.15 -27.32,31.06 -38.73,53.83zm453.66 347.38l-36.76 -10.04 79.62 -291.65 163.02 44.5 -8.83 32.33 -126.26 -34.46 -28.21 103.32 118.44 32.33 -8.81 32.26 -118.43 -32.33 -33.78 123.74zm367.26 83.53l-107.38 -20.31 4.09 -21.63 36.43 -1.3 44.93 -237.58 -33.36 -14.93 4.09 -21.63 107.38 20.31 -4.09 21.63 -36.51 1.71 -44.93 237.58 33.44 14.52 -4.09 21.63zm300.45 28l-90.15 -268.34 -1.62 -0.06c0.29,5.65 0.53,12.86 0.65,21.62 0.11,8.75 0.13,18.29 0.05,28.66 -0.08,10.24 -0.31,20.75 -0.69,31.4l-6.46 183.26 -35.12 -1.24 10.66 -302.15 56.27 1.99 84.34 250.92 1.76 0.06 103.44 -244.3 55.84 1.97 -10.65 302.14 -37.66 -1.32 6.55 -185.73c0.35,-9.94 0.84,-19.74 1.46,-29.39 0.56,-9.72 1.3,-18.87 2.16,-27.46 0.95,-8.58 1.62,-15.82 2.11,-21.74l-1.62 -0.05 -110.01 260.86 -31.31 -1.1zm679.84 -209.29c6.31,33.34 5.41,62.39 -2.68,87.18 -8.11,24.73 -22.59,44.98 -43.45,60.7 -20.87,15.73 -47.66,26.68 -80.45,32.89l-82.72 15.64 -56.18 -297.06 91.45 -17.3c30.02,-5.68 56.99,-5.03 80.94,2 24.07,6.93 44.07,20.02 60.07,39.34 15.98,19.16 26.99,44.72 33.02,76.61zm-39.29 8.66c-4.97,-26.28 -13.43,-47.09 -25.35,-62.28 -11.93,-15.27 -27.07,-25.4 -45.4,-30.47 -18.39,-5 -39.49,-5.25 -63.26,-0.75l-48.67 9.21 44.07 233 40.35 -7.64c40.21,-7.6 68.49,-23.22 84.83,-46.91 16.35,-23.63 20.83,-55 13.43,-94.16zm419.83 41.24l-65.92 -75.71 -112.73 40.55 -2.19 100.22 -36.25 13.04 8.38 -325.59 32.34 -11.63 213.41 245.79 -37.04 13.33zm-150.99 -178.35c-1.47,-1.8 -4.16,-5.1 -8.09,-9.99 -3.87,-4.9 -7.73,-10.03 -11.68,-15.36 -3.83,-5.45 -6.87,-9.53 -9.02,-12.36 0.52,5.82 1.06,11.69 1.49,17.69 0.56,5.94 0.9,11.44 1.02,16.58 0.21,4.95 0.32,9.25 0.46,12.73l-1.35 97.74 89.95 -32.36 -62.78 -74.67zm463.31 46.88l-34.18 16.83 -133.5 -271.26 151.61 -74.62 14.8 30.08 -117.43 57.79 47.3 96.09 110.15 -54.21 14.76 30 -110.15 54.22 56.64 115.08zm381.35 -416.69c13.73,18.98 23.76,37.93 30.13,56.84 6.36,18.91 8.84,37.4 7.46,55.47 -1.43,18.01 -7.01,35.1 -16.73,51.27 -9.81,16.06 -23.96,30.82 -42.43,44.17 -19.26,13.93 -38.21,23.01 -56.72,27.27 -18.54,4.09 -36.48,3.99 -53.83,-0.26 -17.45,-4.27 -34.06,-12.55 -49.92,-24.85 -15.85,-12.31 -30.59,-27.86 -44.27,-46.78 -18.24,-25.22 -29.99,-50.15 -35.32,-74.85 -5.33,-24.71 -3.4,-48.4 5.81,-71.08 9.16,-22.73 26.58,-43.33 52.25,-61.89 24.41,-17.65 48.75,-27.33 73.01,-28.94 24.22,-1.67 47.44,3.83 69.6,16.54 22.28,12.62 42.56,31.65 60.96,57.09zm-193.48 139.9c14.85,20.53 30.52,36.18 46.97,47.01 16.49,10.64 33.61,15.67 51.41,14.99 17.75,-0.74 35.79,-7.69 54.14,-20.96 18.47,-13.36 30.73,-28.32 36.76,-44.77 6,-16.53 6.47,-34.29 1.43,-53.2 -5.02,-19.09 -14.98,-38.88 -29.82,-59.4 -22.36,-30.93 -46.26,-50.49 -71.74,-58.63 -25.43,-8.33 -52,-2.44 -79.61,17.53 -18.58,13.43 -30.99,28.42 -37.26,45.04 -6.3,16.58 -6.97,34.3 -2.13,53.17 5.02,18.85 14.93,38.58 29.85,59.22zm514.98 -222.42l-255.51 -121.87 -1.17 1.13c4.27,3.72 9.61,8.57 15.99,14.57 6.37,6.01 13.23,12.63 20.63,19.9 7.3,7.18 14.69,14.65 22.08,22.33l127.18 132.1 -25.32 24.37 -209.68 -217.8 40.57 -39.05 238.94 113.92 1.27 -1.22 -103.59 -244.23 40.26 -38.76 209.68 217.8 -27.15 26.14 -128.88 -133.89c-6.91,-7.16 -13.61,-14.33 -20.11,-21.48 -6.59,-7.17 -12.65,-14.07 -18.22,-20.66 -5.51,-6.65 -10.24,-12.17 -14.15,-16.63l-1.17 1.12 110.92 260.48 -22.57 21.73zm344.35 -401.41l-102.96 133.99 -239.73 -184.2 102.95 -134 26.58 20.43 -79.74 103.78 74.8 57.47 75.06 -97.68 26.23 20.16 -75.05 97.68 85.54 65.73 79.74 -103.78 26.58 20.42z"/>
   </g>
   <g>
    <g>
     <g>
      <g>
       <path class="fil1" d="M1654.01 4368.84c-120.07,0 -217.73,-97.66 -217.73,-217.73 0,-63.53 26.93,-122.24 73.5,-163.2 -46.57,-40.96 -73.5,-99.67 -73.5,-163.2 0,-120.07 97.66,-217.73 217.73,-217.73 327.18,0 459.66,326.63 459.66,380.92 0,52.2 -138.3,380.94 -459.66,380.94zm0 -708.66c-90.73,0 -164.54,73.82 -164.54,164.54 0,57.79 29.5,110.33 78.9,140.49 7.91,4.84 12.73,13.44 12.73,22.7 0,9.26 -4.82,17.86 -12.73,22.7 -49.4,30.19 -78.9,82.71 -78.9,140.49 0,90.73 73.82,164.52 164.54,164.52 291.39,0 405.74,-302.23 406.45,-327.77 -0.08,-39.7 -125.01,-327.67 -406.45,-327.67zm433.07 327.74l0.26 0 -0.26 0z"/>
      </g>
     </g>
     <g>
      <g>
       <path class="fil1" d="M1826.15 3454.68c-27.49,0 -56.57,-4.52 -86.86,-15.24 -69.77,-24.63 -106.47,-101.44 -81.84,-171.21 11.62,-32.86 34.82,-59.13 64.8,-74.53 -13.63,-30.82 -15.19,-65.83 -3.6,-98.69 11.93,-33.81 36.33,-60.93 68.66,-76.39 32.33,-15.43 68.77,-17.38 102.55,-5.45 94.88,33.5 140.12,106.39 161.4,161.66 21.99,57.1 26.59,117.92 18.26,141.53l0 0c-8.98,25.29 -106.27,138.32 -243.37,138.32zm18.94 -396.03c-11.93,0 -23.79,2.67 -34.85,7.96 -19.53,9.34 -34.24,25.69 -41.43,46.12 -9.47,26.83 -4.39,56.04 13.6,78.16 5.85,7.2 7.54,16.91 4.45,25.64 -3.1,8.73 -10.5,15.24 -19.58,17.15 -27.86,5.9 -50.17,25.48 -59.64,52.31 -7.2,20.37 -6.03,42.36 3.31,61.89 9.31,19.53 25.69,34.24 46.09,41.43 141.9,50.09 252.57,-73.13 262.33,-90.88 6.06,-27.17 -10.13,-186.66 -147.21,-235.08 -8.87,-3.14 -17.99,-4.7 -27.07,-4.7zm199.31 248.81l0.27 0 -0.27 0zm0 0l0.27 0 -0.27 0z"/>
      </g>
     </g>
     <g>
      <g>
       <path class="fil1" d="M1845.04 4970.42c-19.76,0 -39.42,-4.42 -57.76,-13.2 -32.33,-15.45 -56.7,-42.57 -68.66,-76.39 -11.59,-32.86 -10.03,-67.89 3.6,-98.72 -29.95,-15.4 -53.18,-41.67 -64.8,-74.53 -24.63,-69.77 12.07,-146.55 81.84,-171.21 181.5,-64.06 319.46,92.74 330.2,123.11l0 0c8.33,23.6 3.73,84.4 -18.26,141.53 -21.27,55.25 -66.52,128.14 -161.4,161.66 -14.6,5.16 -29.71,7.75 -44.76,7.75zm-19.87 -395.76c-21.64,0 -44.45,3.55 -68.18,11.91 -20.4,7.2 -36.78,21.93 -46.09,41.43 -9.34,19.53 -10.5,41.49 -3.31,61.89 9.47,26.83 31.78,46.38 59.64,52.31 9.08,1.91 16.48,8.41 19.58,17.15 3.1,8.73 1.4,18.47 -4.45,25.64 -17.99,22.12 -23.07,51.33 -13.6,78.16 7.2,20.4 21.93,36.75 41.43,46.09 19.5,9.31 41.46,10.48 61.89,3.28 137.08,-48.39 153.27,-207.91 147.21,-235.08 -8.09,-14.78 -86.23,-102.78 -194.12,-102.78z"/>
      </g>
     </g>
    </g>
    <g>
     <g>
      <g>
       <path class="fil1" d="M7327.94 4368.84c-321.36,0 -459.66,-328.74 -459.66,-380.92 0,-54.29 132.45,-380.92 459.66,-380.92 120.07,0 217.73,97.66 217.73,217.73 0,63.53 -26.93,122.24 -73.5,163.2 46.57,40.96 73.5,99.67 73.5,163.2 0,120.05 -97.66,217.71 -217.73,217.71zm-406.45 -380.97c0.71,25.53 115.07,327.77 406.48,327.77 90.73,0 164.54,-73.79 164.54,-164.52 0,-57.79 -29.5,-110.33 -78.9,-140.49 -7.91,-4.84 -12.73,-13.44 -12.73,-22.7 0,-9.26 4.82,-17.86 12.73,-22.7 49.4,-30.19 78.9,-82.71 78.9,-140.49 0,-90.73 -73.82,-164.54 -164.54,-164.54 -281.44,-0.02 -406.4,287.95 -406.48,327.67z"/>
      </g>
     </g>
     <g>
      <g>
       <path class="fil1" d="M7156.89 3454.41c-57.63,0 -106.6,-19.92 -141.76,-40.43 -56.01,-32.68 -95.62,-77.71 -102.66,-97.68 -8.33,-23.6 -3.73,-84.4 18.26,-141.5 21.27,-55.25 66.52,-128.14 161.4,-161.66 33.84,-11.93 70.22,-9.97 102.55,5.45 32.33,15.45 56.7,42.57 68.66,76.36 11.59,32.89 10.03,67.89 -3.6,98.72 29.95,15.4 53.18,41.67 64.8,74.53 24.63,69.77 -12.09,146.55 -81.84,171.21 -30.14,10.66 -58.93,15 -85.81,15zm-194.26 -156.02c9.74,17.75 120.44,141 262.33,90.88 42.1,-14.87 64.24,-61.22 49.4,-103.32 -9.5,-26.8 -31.78,-46.36 -59.66,-52.28 -9.05,-1.93 -16.46,-8.41 -19.55,-17.15 -3.1,-8.73 -1.4,-18.47 4.45,-25.64 17.99,-22.12 23.07,-51.33 13.6,-78.16 -7.2,-20.4 -21.91,-36.75 -41.43,-46.09 -19.53,-9.34 -41.51,-10.5 -61.89,-3.28 -137.11,48.4 -153.3,207.92 -147.25,235.04z"/>
      </g>
     </g>
     <g>
      <g>
       <path class="fil1" d="M7136.92 4970.42c-15.05,0 -30.16,-2.57 -44.79,-7.75 -94.88,-33.5 -140.12,-106.42 -161.4,-161.66 -21.99,-57.1 -26.59,-117.9 -18.26,-141.5l0 0c7.04,-19.95 46.65,-65.01 102.66,-97.68 51.54,-30.06 132.79,-58.9 227.57,-25.43 69.74,24.63 106.47,101.44 81.84,171.19 -11.62,32.86 -34.82,59.13 -64.8,74.53 13.63,30.82 15.21,65.83 3.6,98.69 -11.93,33.81 -36.33,60.93 -68.66,76.39 -18.34,8.78 -38.03,13.22 -57.76,13.22zm-174.29 -293c-6.06,27.15 10.13,186.66 147.21,235.08 20.4,7.2 42.39,6.03 61.89,-3.28 19.53,-9.34 34.24,-25.69 41.43,-46.12 9.47,-26.8 4.39,-56.04 -13.6,-78.16 -5.85,-7.2 -7.54,-16.91 -4.45,-25.64 3.1,-8.73 10.5,-15.24 19.55,-17.15 27.89,-5.93 50.17,-25.48 59.66,-52.31 14.87,-42.1 -7.3,-88.45 -49.4,-103.32 -141.95,-50.15 -252.55,73.15 -262.29,90.9zm-0.31 0.61l0 0 0 0 0 0zm-24.77 -9.65l0.27 0 -0.27 0z"/>
      </g>
     </g>
    </g>
   </g>
   <g>
    <g>
     <path class="fil1" d="M4490.98 7404.83c-1884.1,0 -3416.91,-1532.84 -3416.91,-3416.91 0,-1884.07 1532.84,-3416.91 3416.91,-3416.91 1884.07,0 3416.91,1532.81 3416.91,3416.91 0,1884.1 -1532.82,3416.91 -3416.91,3416.91zm0 -6783.18c-1856.18,0 -3366.27,1510.11 -3366.27,3366.27 0,1856.16 1510.11,3366.27 3366.27,3366.27 1856.16,0 3366.26,-1510.09 3366.26,-3366.27 0,-1856.18 -1510.08,-3366.27 -3366.26,-3366.27z"/>
    </g>
    <g>
     <path class="fil1" d="M4490.98 5968.88c-1086.59,0 -1970.56,-884 -1970.56,-1970.56 0,-1086.56 884,-1970.59 1970.56,-1970.59 1086.56,0 1970.56,884 1970.56,1970.59 0,1086.59 -883.97,1970.56 -1970.56,1970.56zm0 -3888.82c-1057.72,0 -1918.23,860.53 -1918.23,1918.26 0,1057.73 860.5,1918.23 1918.23,1918.23 1057.73,0 1918.23,-860.5 1918.23,-1918.23 0,-1057.73 -860.51,-1918.26 -1918.23,-1918.26z"/>
    </g>
    <g>
     <path class="fil1" d="M4490.98 6084.9c-1156.28,0 -2096.98,-940.7 -2096.98,-2096.98 0,-1156.28 940.7,-2096.98 2096.98,-2096.98 1156.28,0 2096.98,940.7 2096.98,2096.98 0,1156.28 -940.7,2096.98 -2096.98,2096.98zm0 -4140.75c-1126.94,0 -2043.77,916.83 -2043.77,2043.77 0,1126.94 916.83,2043.77 2043.77,2043.77 1126.94,0 2043.77,-916.83 2043.77,-2043.77 0,-1126.94 -916.83,-2043.77 -2043.77,-2043.77z"/>
    </g>
   </g>
  </g>
 </g>
</svg>
